<?xml version="1.0" encoding="UTF-8" standalone="no"?>
<!-- Created with Inkscape (http://www.inkscape.org/) -->

<svg
   width="400"
   height="400"
   viewBox="0 0 100 100"
   version="1.1"
   id="svg1"
   xmlns="http://www.w3.org/2000/svg"
   xmlns:svg="http://www.w3.org/2000/svg">
  <defs
     id="defs1">
    <filter
       id="selectable_hidder_filter"
       width="1"
       height="1"
       x="0"
       y="0"
       style="color-interpolation-filters:sRGB;">
      <feComposite
         id="boolops_hidder_primitive"
         result="composite1"
         operator="arithmetic"
         in2="SourceGraphic"
         in="BackgroundImage" />
    </filter>
  </defs>
  <g
     id="layer1"
     style="display:inline" />
  <g
     id="layer3"
     style="display:inline">
    <path
       d="M 0,0 V 100 M 50,0 V 100 M 100,0 V 100 M 0,0 H 100 M 0,5 H 100 M 0,10 H 100 M 0,15 H 100 M 0,20 H 100 M 0,25 H 100 M 0,30 H 100 M 0,35 H 100 M 0,40 H 100 M 0,45 H 100 M 0,50 H 100 M 0,55 H 100 M 0,60 H 100 M 0,65 H 100 M 0,70 H 100 M 0,75 H 100 M 0,80 H 100 M 0,85 H 100 M 0,90 H 100 M 0,95 H 100 M 0,100 h 100"
       style="display:none;fill:none;stroke:#000000;stroke-width:0.5px;stroke-opacity:0.163708"
       id="path510" />
  </g>
  <g
     id="layer2"
     style="display:inline">
    <path
       d="M 0,0 V 100 M 50,0 V 100 M 100,0 V 100 M 0,0 H 100 M 0,50 H 100 M 0,100 h 100"
       style="display:none;fill:none;stroke:#000000;stroke-width:0.155906;stroke-dasharray:none;stroke-dashoffset:0;stroke-opacity:1"
       id="path509" />
  </g>
  <g
     id="layer4">
    <g
       id="g634"
       style="display:inline"
       transform="matrix(0.89618659,0.00399392,-0.00399392,0.89618659,5.9822254,4.3970887)">
      <path
         style="display:none;fill:none;fill-opacity:1;stroke:#000000;stroke-width:0.817322;stroke-linejoin:round;stroke-dasharray:none;stroke-opacity:0.134003"
         d="M 50,50 0,0 M 50,50 100,0 M 50,50 0,100 m 50,-50 50,50"
         id="path521" />
      <path
         style="fill:#000000;fill-opacity:1;fill-rule:nonzero;stroke:none;stroke-width:0.817322;stroke-linecap:butt;stroke-linejoin:bevel;stroke-dasharray:none;stroke-dashoffset:0;stroke-opacity:1"
         d="m 50,44.108263 c -0.129507,0 -0.467783,-0.02866 -0.777042,0 -0.468009,0.04337 -1.201799,0.244025 -1.749234,0.327032 -0.479628,0.07273 -0.925822,0.133242 -1.356803,0.158298 -0.389712,0.02266 -0.930768,0 -1.116921,0 -0.541876,0 -0.541876,0.812814 0,0.812814 0.186153,0 0.727209,-0.02266 1.116921,0 0.430981,0.02506 0.877175,0.08557 1.356803,0.158298 0.547435,0.08301 1.281225,0.283659 1.749234,0.327032 0.309259,0.02866 0.647535,0 0.777042,0 z m 0,0 c 0.129507,0 0.467783,-0.02866 0.777042,0 0.468009,0.04337 1.201799,0.244025 1.749234,0.327032 0.479628,0.07273 0.925822,0.133242 1.356803,0.158298 0.389712,0.02266 0.930768,0 1.116921,0 0.541876,0 0.541876,0.812814 0,0.812814 -0.186153,0 -0.727209,-0.02266 -1.116921,0 -0.430981,0.02506 -0.877175,0.08557 -1.356803,0.158298 -0.547435,0.08301 -1.281225,0.283659 -1.749234,0.327032 -0.309259,0.02866 -0.647535,0 -0.777042,0 z m 0,11.783474 c -0.129507,0 -0.467783,0.02866 -0.777042,0 -0.468009,-0.04337 -1.201799,-0.244025 -1.749234,-0.327032 -0.479628,-0.07273 -0.925822,-0.133242 -1.356803,-0.158298 -0.389712,-0.02266 -0.930768,0 -1.116921,0 -0.541876,0 -0.541876,-0.812814 0,-0.812814 0.186153,0 0.727209,0.02266 1.116921,0 0.430981,-0.02506 0.877175,-0.08557 1.356803,-0.158298 0.547435,-0.08301 1.281225,-0.283659 1.749234,-0.327032 0.309259,-0.02866 0.647535,0 0.777042,0 z m 0,0 c 0.129507,0 0.467783,0.02866 0.777042,0 0.468009,-0.04337 1.201799,-0.244025 1.749234,-0.327032 0.479628,-0.07273 0.925822,-0.133242 1.356803,-0.158298 0.389712,-0.02266 0.930768,0 1.116921,0 0.541876,0 0.541876,-0.812814 0,-0.812814 -0.186153,0 -0.727209,0.02266 -1.116921,0 -0.430981,-0.02506 -0.877175,-0.08557 -1.356803,-0.158298 -0.547435,-0.08301 -1.281225,-0.283659 -1.749234,-0.327032 -0.309259,-0.02866 -0.647535,0 -0.777042,0 z"
         id="path614" />
      <path
         style="fill:#000000;fill-opacity:1;fill-rule:nonzero;stroke:none;stroke-width:0.817322;stroke-linecap:butt;stroke-linejoin:bevel;stroke-dasharray:none;stroke-dashoffset:0;stroke-opacity:1"
         d="m 50,43.929916 c -0.221854,0 -0.813675,-0.02989 -1.331126,0 -0.72955,0.04215 -1.659104,0.220703 -2.628403,0.304709 -1.193249,0.103415 -2.891748,0.198431 -4.003311,0.23039 -0.792279,0.02278 -1.697633,0 -2.03716,0 -0.713313,0 -0.713313,1.06997 0,1.06997 0.339527,0 1.244881,-0.02278 2.03716,0 1.111563,0.03196 2.810062,0.126975 4.003311,0.23039 0.969299,0.08401 1.898853,0.262562 2.628403,0.304709 0.517451,0.02989 1.109272,0 1.331126,0 z m 0,0 c 0.221854,0 0.813675,-0.02989 1.331126,0 0.72955,0.04215 1.659104,0.220703 2.628403,0.304709 1.193249,0.103415 2.891748,0.198431 4.003311,0.23039 0.792279,0.02278 1.697633,0 2.03716,0 0.713313,0 0.713313,1.06997 0,1.06997 -0.339527,0 -1.244881,-0.02278 -2.03716,0 -1.111563,0.03196 -2.810062,0.126975 -4.003311,0.23039 -0.969299,0.08401 -1.898853,0.262562 -2.628403,0.304709 -0.517451,0.02989 -1.109272,0 -1.331126,0 z m 0,22.140168 c -0.221854,0 -0.813675,0.02989 -1.331126,0 -0.72955,-0.04215 -1.659104,-0.220703 -2.628403,-0.304709 -1.193249,-0.103415 -2.891748,-0.198431 -4.003311,-0.23039 -0.792279,-0.02278 -1.697633,0 -2.03716,0 -0.713313,0 -0.713313,-1.06997 0,-1.06997 0.339527,0 1.244881,0.02278 2.03716,0 1.111563,-0.03196 2.810062,-0.126975 4.003311,-0.23039 0.969299,-0.08401 1.898853,-0.262562 2.628403,-0.304709 0.517451,-0.02989 1.109272,0 1.331126,0 z m 0,0 c 0.221854,0 0.813675,0.02989 1.331126,0 0.72955,-0.04215 1.659104,-0.220703 2.628403,-0.304709 1.193249,-0.103415 2.891748,-0.198431 4.003311,-0.23039 0.792279,-0.02278 1.697633,0 2.03716,0 0.713313,0 0.713313,-1.06997 0,-1.06997 -0.339527,0 -1.244881,0.02278 -2.03716,0 -1.111563,-0.03196 -2.810062,-0.126975 -4.003311,-0.23039 -0.969299,-0.08401 -1.898853,-0.262562 -2.628403,-0.304709 -0.517451,-0.02989 -1.109272,0 -1.331126,0 z"
         id="path619"
         transform="translate(0,-5)" />
      <path
         style="fill:#000000;fill-opacity:1;fill-rule:nonzero;stroke:none;stroke-width:0.817322;stroke-linecap:butt;stroke-linejoin:bevel;stroke-dasharray:none;stroke-dashoffset:0;stroke-opacity:1"
         d="m 50,43.714409 c -0.283235,0 -0.978224,-0.02909 -1.699411,0 -1.268829,0.05117 -3.515161,0.31276 -5.243194,0.42362 -1.685969,0.108161 -3.538421,0.203054 -5.001655,0.237822 -1.143063,0.02716 -2.54645,0 -3.05574,0 -0.832198,0 -0.832198,1.248298 0,1.248298 0.50929,0 1.912677,-0.02716 3.05574,0 1.463234,0.03477 3.315686,0.129661 5.001655,0.237822 1.728033,0.11086 3.974365,0.372447 5.243194,0.42362 0.721187,0.02909 1.416176,0 1.699411,0 z m 0,0 c 0.283235,0 0.978224,-0.02909 1.699411,0 1.268829,0.05117 3.515161,0.31276 5.243194,0.42362 1.685969,0.108161 3.538421,0.203054 5.001655,0.237822 1.143063,0.02716 2.54645,0 3.05574,0 0.832198,0 0.832198,1.248298 0,1.248298 -0.50929,0 -1.912677,-0.02716 -3.05574,0 -1.463234,0.03477 -3.315686,0.129661 -5.001655,0.237822 -1.728033,0.11086 -3.974365,0.372447 -5.243194,0.42362 -0.721187,0.02909 -1.416176,0 -1.699411,0 z m 0,32.571182 c -0.283235,0 -0.978224,0.02909 -1.699411,0 -1.268829,-0.05117 -3.515161,-0.31276 -5.243194,-0.42362 -1.685969,-0.108161 -3.538421,-0.203054 -5.001655,-0.237822 -1.143063,-0.02716 -2.54645,0 -3.05574,0 -0.832198,0 -0.832198,-1.248298 0,-1.248298 0.50929,0 1.912677,0.02716 3.05574,0 1.463234,-0.03477 3.315686,-0.129661 5.001655,-0.237822 1.728033,-0.11086 3.974365,-0.372447 5.243194,-0.42362 0.721187,-0.02909 1.416176,0 1.699411,0 z m 0,0 c 0.283235,0 0.978224,0.02909 1.699411,0 1.268829,-0.05117 3.515161,-0.31276 5.243194,-0.42362 1.685969,-0.108161 3.538421,-0.203054 5.001655,-0.237822 1.143063,-0.02716 2.54645,0 3.05574,0 0.832198,0 0.832198,-1.248298 0,-1.248298 -0.50929,0 -1.912677,0.02716 -3.05574,0 -1.463234,-0.03477 -3.315686,-0.129661 -5.001655,-0.237822 -1.728033,-0.11086 -3.974365,-0.372447 -5.243194,-0.42362 -0.721187,-0.02909 -1.416176,0 -1.699411,0 z"
         id="path620"
         transform="translate(0,-10)" />
      <path
         style="fill:#000000;fill-opacity:1;fill-rule:nonzero;stroke:none;stroke-width:0.817322;stroke-linecap:butt;stroke-linejoin:bevel;stroke-dasharray:none;stroke-dashoffset:0;stroke-opacity:1"
         d="m 50,43.498902 c -0.453818,0 -1.587178,-0.03207 -2.72291,0 -1.902226,0.05372 -5.282965,0.289878 -7.626276,0.431052 -2.004249,0.120747 -3.862409,0.301963 -5.576495,0.356733 -1.463645,0.04677 -3.395266,0 -4.074319,0 -0.95058,5.03e-4 -0.95058,1.427129 0,1.426626 0.679053,0 2.610674,-0.04677 4.074319,0 1.714086,0.05477 3.572246,0.235986 5.576495,0.356733 2.343311,0.141174 5.72405,0.377336 7.626276,0.431052 1.135732,0.03207 2.269092,0 2.72291,0 z m 0,0 c 0.453818,0 1.587178,-0.03207 2.72291,0 1.902226,0.05372 5.282965,0.289878 7.626276,0.431052 2.004249,0.120747 3.862409,0.301963 5.576495,0.356733 1.463645,0.04677 3.395266,0 4.074319,0 0.95058,5.03e-4 0.95058,1.427129 0,1.426626 -0.679053,0 -2.610674,-0.04677 -4.074319,0 -1.714086,0.05477 -3.572246,0.235986 -5.576495,0.356733 -2.343311,0.141174 -5.72405,0.377336 -7.626276,0.431052 -1.135732,0.03207 -2.269092,0 -2.72291,0 z m 0,43.002196 c -0.453818,0 -1.587178,0.03207 -2.72291,0 -1.902226,-0.05372 -5.282965,-0.289878 -7.626276,-0.431052 -2.004249,-0.120747 -3.862409,-0.301963 -5.576495,-0.356733 -1.463645,-0.04677 -3.395266,0 -4.074319,0 -0.95058,-5.03e-4 -0.95058,-1.427129 0,-1.426626 0.679053,0 2.610674,0.04677 4.074319,0 1.714086,-0.05477 3.572246,-0.235986 5.576495,-0.356733 2.343311,-0.141174 5.72405,-0.377336 7.626276,-0.431052 1.135732,-0.03207 2.269092,0 2.72291,0 z m 0,0 c 0.453818,0 1.587178,0.03207 2.72291,0 1.902226,-0.05372 5.282965,-0.289878 7.626276,-0.431052 2.004249,-0.120747 3.862409,-0.301963 5.576495,-0.356733 1.463645,-0.04677 3.395266,0 4.074319,0 0.95058,-5.03e-4 0.95058,-1.427129 0,-1.426626 -0.679053,0 -2.610674,0.04677 -4.074319,0 -1.714086,-0.05477 -3.572246,-0.235986 -5.576495,-0.356733 -2.343311,-0.141174 -5.72405,-0.377336 -7.626276,-0.431052 -1.135732,-0.03207 -2.269092,0 -2.72291,0 z"
         id="path622"
         transform="translate(0,-15)" />
      <path
         style="fill:#000000;fill-opacity:1;fill-rule:nonzero;stroke:none;stroke-width:0.817322;stroke-linecap:butt;stroke-linejoin:bevel;stroke-dasharray:none;stroke-dashoffset:0;stroke-opacity:1"
         d="m 50,43.394874 c -0.647535,0 -2.367931,-0.04602 -3.88521,0 -2.150558,0.06522 -5.157568,0.340347 -7.790901,0.473003 -2.705283,0.13628 -5.814608,0.281278 -8.23099,0.329646 -1.899975,0.03803 -4.244082,0 -5.092899,0 -1.069141,8.27e-4 -1.069141,1.605781 0,1.604954 0.848817,0 3.192924,-0.03803 5.092899,0 2.416382,0.04837 5.525707,0.193366 8.23099,0.329646 2.633333,0.132656 5.640343,0.407781 7.790901,0.473003 1.517279,0.04602 3.237675,0 3.88521,0 z m 0,0 c 0.647535,0 2.367931,-0.04602 3.88521,0 2.150558,0.06522 5.157568,0.340347 7.790901,0.473003 2.705283,0.13628 5.814608,0.281278 8.23099,0.329646 1.899975,0.03803 4.244082,0 5.092899,0 1.069141,8.27e-4 1.069141,1.605781 0,1.604954 -0.848817,0 -3.192924,-0.03803 -5.092899,0 -2.416382,0.04837 -5.525707,0.193366 -8.23099,0.329646 -2.633333,0.132656 -5.640343,0.407781 -7.790901,0.473003 -1.517279,0.04602 -3.237675,0 -3.88521,0 z m 0,53.210252 c -0.647535,0 -2.367931,0.04602 -3.88521,0 -2.150558,-0.06522 -5.157568,-0.340347 -7.790901,-0.473003 -2.705283,-0.13628 -5.814608,-0.281278 -8.23099,-0.329646 -1.899975,-0.03803 -4.244082,0 -5.092899,0 -1.069141,-8.27e-4 -1.069141,-1.605781 0,-1.604954 0.848817,0 3.192924,0.03803 5.092899,0 2.416382,-0.04837 5.525707,-0.193366 8.23099,-0.329646 2.633333,-0.132656 5.640343,-0.407781 7.790901,-0.473003 1.517279,-0.04602 3.237675,0 3.88521,0 z m 0,0 c 0.647535,0 2.367931,0.04602 3.88521,0 2.150558,-0.06522 5.157568,-0.340347 7.790901,-0.473003 2.705283,-0.13628 5.814608,-0.281278 8.23099,-0.329646 1.899975,-0.03803 4.244082,0 5.092899,0 1.069141,-8.27e-4 1.069141,-1.605781 0,-1.604954 -0.848817,0 -3.192924,0.03803 -5.092899,0 -2.416382,-0.04837 -5.525707,-0.193366 -8.23099,-0.329646 -2.633333,-0.132656 -5.640343,-0.407781 -7.790901,-0.473003 -1.517279,-0.04602 -3.237675,0 -3.88521,0 z"
         id="path624"
         transform="translate(0,-20)" />
      <path
         style="fill:#000000;fill-opacity:1;fill-rule:nonzero;stroke:none;stroke-width:0.817322;stroke-linecap:butt;stroke-linejoin:bevel;stroke-dasharray:none;stroke-dashoffset:0;stroke-opacity:1"
         d="m 50,43.216526 c -0.781754,0 -2.801669,-0.04336 -4.690525,0 -2.885355,0.06623 -7.527938,0.345089 -10.933624,0.502203 -2.986792,0.137789 -5.824498,0.329782 -8.409242,0.38963 -2.208983,0.05115 -5.123785,0 -6.148542,0 -1.187756,0.0011 -1.187756,1.784379 0,1.783282 1.024757,0 3.939559,-0.05115 6.148542,0 2.584744,0.05985 5.42245,0.251841 8.409242,0.38963 3.405686,0.157114 8.048269,0.435973 10.933624,0.502203 1.888856,0.04336 3.908771,0 4.690525,0 z m 0,0 c 0.781754,0 2.801669,-0.04336 4.690525,0 2.885355,0.06623 7.527938,0.345089 10.933624,0.502203 2.986792,0.137789 5.824498,0.329782 8.409242,0.38963 2.208983,0.05115 5.123785,0 6.148542,0 1.187756,0.0011 1.187756,1.784379 0,1.783282 -1.024757,0 -3.939559,-0.05115 -6.148542,0 -2.584744,0.05985 -5.42245,0.251841 -8.409242,0.38963 -3.405686,0.157114 -8.048269,0.435973 -10.933624,0.502203 -1.888856,0.04336 -3.908771,0 -4.690525,0 z m 0,63.930814 c -0.781754,0 -2.801669,0.0434 -4.690525,0 -2.885355,-0.0662 -7.527938,-0.34509 -10.933624,-0.5022 -2.986792,-0.13779 -5.824498,-0.32979 -8.409242,-0.38963 -2.208983,-0.0512 -5.123785,0 -6.148542,0 -1.187756,-0.001 -1.187756,-1.78438 0,-1.78329 1.024757,0 3.939559,0.0512 6.148542,0 2.584744,-0.0598 5.42245,-0.25184 8.409242,-0.38962 3.405686,-0.15712 8.048269,-0.43598 10.933624,-0.50221 1.888856,-0.0434 3.908771,0 4.690525,0 z m 0,0 c 0.781754,0 2.801669,0.0434 4.690525,0 2.885355,-0.0662 7.527938,-0.34509 10.933624,-0.5022 2.986792,-0.13779 5.824498,-0.32979 8.409242,-0.38963 2.208983,-0.0512 5.123785,0 6.148542,0 1.187756,-0.001 1.187756,-1.78438 0,-1.78329 -1.024757,0 -3.939559,0.0512 -6.148542,0 -2.584744,-0.0598 -5.42245,-0.25184 -8.409242,-0.38962 -3.405686,-0.15712 -8.048269,-0.43598 -10.933624,-0.50221 -1.888856,-0.0434 -3.908771,0 -4.690525,0 z"
         id="path626"
         transform="translate(0,-25.181933)" />
      <path
         style="fill:#000000;fill-opacity:1;fill-rule:nonzero;stroke:none;stroke-width:0.817322;stroke-linecap:butt;stroke-linejoin:bevel;stroke-dasharray:none;stroke-dashoffset:0;stroke-opacity:1"
         d="m 50,43.038179 c -0.906549,0 -3.227042,-0.04841 -5.439293,0 -3.465535,0.07584 -9.314001,0.408138 -13.335153,0.583954 -3.320958,0.145201 -6.247331,0.334923 -9.095495,0.397061 -2.520529,0.05499 -5.941716,0 -7.130059,0 -1.307741,0 -1.307741,1.961612 0,1.961612 1.188343,0 4.60953,-0.05499 7.130059,0 2.848164,0.06214 5.774537,0.25186 9.095495,0.397061 4.021152,0.175816 9.869618,0.508112 13.335153,0.583954 2.212251,0.04841 4.532744,0 5.439293,0 z m 0,0 c 0.906549,0 3.227042,-0.04841 5.439293,0 3.465535,0.07584 9.314001,0.408138 13.335153,0.583954 3.320958,0.145201 6.247331,0.334923 9.095495,0.397061 2.520529,0.05499 5.941716,0 7.130059,0 1.307741,0 1.307741,1.961612 0,1.961612 -1.188343,0 -4.60953,-0.05499 -7.130059,0 -2.848164,0.06214 -5.774537,0.25186 -9.095495,0.397061 -4.021152,0.175816 -9.869618,0.508112 -13.335153,0.583954 -2.212251,0.04841 -4.532744,0 -5.439293,0 z m 0,73.923641 c -0.906549,0 -3.227042,0.0484 -5.439293,0 -3.465535,-0.0758 -9.314001,-0.40814 -13.335153,-0.58395 -3.320958,-0.1452 -6.247331,-0.33493 -9.095495,-0.39706 -2.520529,-0.055 -5.941716,0 -7.130059,0 -1.307741,0 -1.307741,-1.96162 0,-1.96162 1.188343,0 4.60953,0.055 7.130059,0 2.848164,-0.0621 5.774537,-0.25186 9.095495,-0.39706 4.021152,-0.17581 9.869618,-0.50811 13.335153,-0.58395 2.212251,-0.0484 4.532744,0 5.439293,0 z m 0,0 c 0.906549,0 3.227042,0.0484 5.439293,0 3.465535,-0.0758 9.314001,-0.40814 13.335153,-0.58395 3.320958,-0.1452 6.247331,-0.33493 9.095495,-0.39706 2.520529,-0.055 5.941716,0 7.130059,0 1.307741,0 1.307741,-1.96162 0,-1.96162 -1.188343,0 -4.60953,0.055 -7.130059,0 -2.848164,-0.0621 -5.774537,-0.25186 -9.095495,-0.39706 -4.021152,-0.17581 -9.869618,-0.50811 -13.335153,-0.58395 -2.212251,-0.0484 -4.532744,0 -5.439293,0 z"
         id="path628"
         transform="translate(0,-30)" />
      <path
         style="fill:#000000;fill-opacity:1;fill-rule:nonzero;stroke:none;stroke-width:0.817322;stroke-linecap:butt;stroke-linejoin:bevel;stroke-dasharray:none;stroke-dashoffset:0;stroke-opacity:1"
         d="m 50,42.859831 c -1.036056,0 -3.842153,-0.04272 -6.216335,0 -3.186942,0.05734 -7.225596,0.239859 -11.193691,0.402947 -4.508064,0.185281 -10.310615,0.571875 -14.441335,0.667252 -3.101224,0.07161 -6.790533,0 -8.148639,0 -1.426626,0 -1.426626,2.13994 0,2.13994 1.358106,0 5.047415,-0.07161 8.148639,0 4.13072,0.09538 9.933271,0.481971 14.441335,0.667252 3.968095,0.163088 8.006749,0.345604 11.193691,0.402947 2.374182,0.04272 5.180279,0 6.216335,0 z m 0,0 c 1.036056,0 3.842153,-0.04272 6.216335,0 3.186942,0.05734 7.225596,0.239859 11.193691,0.402947 4.508064,0.185281 10.310615,0.571875 14.441335,0.667252 3.101224,0.07161 6.790533,0 8.148639,0 1.426626,0 1.426626,2.13994 0,2.13994 -1.358106,0 -5.047415,-0.07161 -8.148639,0 -4.13072,0.09538 -9.933271,0.481971 -14.441335,0.667252 -3.968095,0.163088 -8.006749,0.345604 -11.193691,0.402947 -2.374182,0.04272 -5.180279,0 -6.216335,0 z m 0,84.280339 c -1.036056,0 -3.842153,0.0427 -6.216335,0 -3.186942,-0.0573 -7.225596,-0.23986 -11.193691,-0.40295 -4.508064,-0.18528 -10.310615,-0.57187 -14.441335,-0.66725 -3.101224,-0.0716 -6.790533,0 -8.148639,0 -1.426626,0 -1.426626,-2.13994 0,-2.13994 1.358106,0 5.047415,0.0716 8.148639,0 4.13072,-0.0954 9.933271,-0.48197 14.441335,-0.66725 3.968095,-0.16309 8.006749,-0.34561 11.193691,-0.40295 2.374182,-0.0427 5.180279,0 6.216335,0 z m 0,0 c 1.036056,0 3.842153,0.0427 6.216335,0 3.186942,-0.0573 7.225596,-0.23986 11.193691,-0.40295 4.508064,-0.18528 10.310615,-0.57187 14.441335,-0.66725 3.101224,-0.0716 6.790533,0 8.148639,0 1.426626,0 1.426626,-2.13994 0,-2.13994 -1.358106,0 -5.047415,0.0716 -8.148639,0 -4.13072,-0.0954 -9.933271,-0.48197 -14.441335,-0.66725 -3.968095,-0.16309 -8.006749,-0.34561 -11.193691,-0.40295 -2.374182,-0.0427 -5.180279,0 -6.216335,0 z"
         id="path630"
         transform="translate(0,-35)" />
      <path
         style="fill:#000000;fill-opacity:1;fill-rule:nonzero;stroke:none;stroke-width:0.817322;stroke-linecap:butt;stroke-linejoin:bevel;stroke-dasharray:none;stroke-dashoffset:0;stroke-opacity:1"
         d="m 50,42.859831 c -1.165563,0 -4.179924,-0.05286 -6.993377,0 -4.285255,0.08051 -11.145681,0.421735 -16.212657,0.609419 -4.471557,0.16563 -8.753427,0.390131 -12.626747,0.46078 -3.299225,0.06018 -7.6393492,0 -9.167219,0 -1.426626,0 -1.426626,2.13994 0,2.13994 1.5278698,0 5.867994,-0.06018 9.167219,0 3.87332,0.07065 8.15519,0.29515 12.626747,0.46078 5.066976,0.187684 11.927402,0.528908 16.212657,0.609419 2.813453,0.05286 5.827814,0 6.993377,0 z m 0,0 c 1.165563,0 4.179924,-0.05286 6.993377,0 4.285255,0.08051 11.145681,0.421735 16.212657,0.609419 4.471557,0.16563 8.753427,0.390131 12.626747,0.46078 3.299225,0.06018 7.639349,0 9.167219,0 1.426626,0 1.426626,2.13994 0,2.13994 -1.52787,0 -5.867994,-0.06018 -9.167219,0 -3.87332,0.07065 -8.15519,0.29515 -12.626747,0.46078 -5.066976,0.187684 -11.927402,0.528908 -16.212657,0.609419 -2.813453,0.05286 -5.827814,0 -6.993377,0 z m 0,94.280339 c -1.165563,0 -4.179924,0.0529 -6.993377,0 -4.285255,-0.0805 -11.145681,-0.42174 -16.212657,-0.60942 -4.471557,-0.16563 -8.753427,-0.39013 -12.626747,-0.46078 -3.299225,-0.0602 -7.6393492,0 -9.167219,0 -1.426626,0 -1.426626,-2.13994 0,-2.13994 1.5278698,0 5.867994,0.0602 9.167219,0 3.87332,-0.0707 8.15519,-0.29515 12.626747,-0.46078 5.066976,-0.18768 11.927402,-0.52891 16.212657,-0.60942 2.813453,-0.0529 5.827814,0 6.993377,0 z m 0,0 c 1.165563,0 4.179924,0.0529 6.993377,0 4.285255,-0.0805 11.145681,-0.42174 16.212657,-0.60942 4.471557,-0.16563 8.753427,-0.39013 12.626747,-0.46078 3.299225,-0.0602 7.639349,0 9.167219,0 1.426626,0 1.426626,-2.13994 0,-2.13994 -1.52787,0 -5.867994,0.0602 -9.167219,0 -3.87332,-0.0707 -8.15519,-0.29515 -12.626747,-0.46078 -5.066976,-0.18768 -11.927402,-0.52891 -16.212657,-0.60942 -2.813453,-0.0529 -5.827814,0 -6.993377,0 z"
         id="path632"
         transform="translate(0,-40)" />
    </g>
  </g>
</svg>
